{"accessors":[{"bufferView":0,"componentType":5125,"count":10050,"name":"index","type":"SCALAR"},{"bufferView":1,"componentType":5126,"count":1978,"max":[1.0885000228881836,0.4713999927043915,0.8119000196456909],"min":[-0.5866000056266785,-0.8637999892234802,-0.9861999750137329],"name":"position","type":"VEC3"},{"bufferView":1,"byteOffset":12,"componentType":5126,"count":1978,"name":"texture_cooridinate","type":"VEC2"}],"asset":{"version":"2.0"},"bufferViews":[{"buffer":0,"byteLength":40200,"name":"indices"},{"buffer":0,"byteLength":39560,"byteOffset":40200,"byteStride":20,"name":"vertices"},{"buffer":1,"byteLength":1167681}],"buffers":[{"byteLength":79760,"name":"geometry","uri":"data:application/octet-stream;base64,"},{"byteLength":1167681,"name":"diffuse_texture","uri":"data:application/octet-stream;base64,"}],"extensionsUsed":["KHR_materials_unlit"],"images":[{"bufferView":2,"mimeType":"image/jpeg"}],"materials":[{"extensions":{"KHR_materials_unlit":{}},"name":"material_0","pbrMetallicRoughness":{"baseColorTexture":{"index":0}}}],"meshes":[{"primitives":[{"attributes":{"POSITION":1,"TEXCOORD_0":2},"indices":0,"material":0,"mode":4}]}],"nodes":[{"mesh":0}],"samplers":[{"wrapR":10497,"wrapS":10497,"wrapT":10497}],"scene":0,"scenes":[{"nodes":[0]}],"textures":[{"sampler":0,"source":0}]}
